# File created by Blade
# Date/Time:  Thu Sep 25 17:33:50 2014
# Frame Rate: 120.000 fps
#------------------------------------------------------
:FULLY-SPECIFIED
:DEGREES
2512
root 1.417604 32.614762 -1.577799 15.088391 7.887638 2.575291
Spine -9.280629 0.056258 -5.650565
Head -24.229091 -8.927898 12.460263
LeftShoulder -0.057487 12.498393 16.932107
LeftArm 60.546413 38.558989 -52.490733
LeftForeArm 34.465125 -0.000000 110.816140
LeftHand -26.361854 0.000000 24.979727
LeftHandThumb1 -26.253704 0.000000 33.147579
RightShoulder -17.313582 10.688683 -20.449359
RightArm 2.658680 -36.488948 89.380978
RightForeArm -25.649046 0.000000 123.101622
RightHand -1.182153 -0.000000 -26.345102
RightHandThumb1 -24.326973 -0.000000 -32.862282
LeftUpLeg -12.061932 4.121188 -6.543817
LeftLeg -1.198087 -0.000000 0.000000
LeftFoot -11.568697 14.156176 -17.330365
LeftToeBase 5.944316 -0.000000 -0.000000
RightUpLeg -19.441416 -5.104548 -7.142983
RightLeg 20.475824 -0.000000 -0.000000
RightFoot -14.767691 -11.706624 -2.841169
RightToeBase -0.893134 -0.000000 0.000000
2513
root 1.406140 32.616105 -1.589672 15.106428 7.826873 2.549460
Spine -9.211995 0.192774 -5.687421
Head -24.387889 -9.090645 12.538473
LeftShoulder -0.095460 12.581669 16.920707
LeftArm 60.419788 38.661821 -52.657334
LeftForeArm 34.229506 -0.000000 110.855637
LeftHand -26.330120 -0.000000 25.108709
LeftHandThumb1 -26.253704 0.000000 33.147579
RightShoulder -17.357309 10.659561 -20.450810
RightArm 2.652551 -36.539339 89.462370
RightForeArm -25.608800 -0.000000 123.087152
RightHand -1.283820 -0.000000 -26.378547
RightHandThumb1 -24.326973 -0.000000 -32.862282
LeftUpLeg -12.125368 4.076153 -6.499484
LeftLeg -1.161572 -0.000000 0.000000
LeftFoot -11.617627 14.259262 -17.385980
LeftToeBase 5.970858 -0.000000 -0.000000
RightUpLeg -19.457483 -5.015845 -7.120526
RightLeg 20.395163 -0.000000 -0.000000
RightFoot -14.711862 -11.735218 -3.027042
RightToeBase -0.834565 -0.000000 0.000000
2514
root 1.392033 32.618177 -1.601475 15.117203 7.776697 2.509675
Spine -9.139535 0.219164 -5.695043
Head -24.515024 -9.157900 12.618134
LeftShoulder -0.164680 12.591958 16.911024
LeftArm 60.053455 38.756032 -52.976893
LeftForeArm 34.088896 -0.000000 110.969191
LeftHand -26.300843 -0.000000 25.118487
LeftHandThumb1 -26.253704 0.000000 33.147579
RightShoulder -17.278325 10.697535 -20.416693
RightArm 2.624759 -36.537066 89.505477
RightForeArm -25.619049 -0.000000 123.081025
RightHand -1.268897 -0.000000 -26.182833
RightHandThumb1 -24.326973 -0.000000 -32.862282
LeftUpLeg -12.189415 4.034447 -6.435310
LeftLeg -1.112696 -0.000000 0.000000
LeftFoot -11.660236 14.362157 -17.401824
LeftToeBase 6.023293 -0.000000 -0.000000
RightUpLeg -19.465193 -5.058909 -7.044811
RightLeg 20.272646 -0.000000 -0.000000
RightFoot -14.657898 -11.653783 -2.953471
RightToeBase -0.930880 -0.000000 0.000000
2515
root 1.378172 32.619040 -1.614662 15.128484 7.711329 2.480739
Spine -9.056304 0.254507 -5.717526
Head -24.654993 -9.226592 12.701691
LeftShoulder -0.265415 12.640123 16.896508
LeftArm 59.840801 38.853205 -53.176121
LeftForeArm 34.266345 -0.000000 110.972056
LeftHand -26.362980 -0.000000 25.424607
LeftHandThumb1 -26.253704 0.000000 33.147579
RightShoulder -17.220758 10.749536 -20.425101
RightArm 2.595317 -36.539575 89.580455
RightForeArm -25.615456 -0.000000 123.060424
RightHand -1.167546 -0.000000 -25.897372
RightHandThumb1 -24.326973 -0.000000 -32.862282
LeftUpLeg -12.250957 4.008234 -6.387719
LeftLeg -1.070238 -0.000000 0.000000
LeftFoot -11.698677 14.462741 -17.404262
LeftToeBase 5.955972 -0.000000 -0.000000
RightUpLeg -19.470728 -5.004779 -7.023499
RightLeg 20.178796 -0.000000 -0.000000
RightFoot -14.608240 -11.578976 -3.139260
RightToeBase -0.902897 -0.000000 0.000000
2516
root 1.363481 32.620128 -1.628365 15.140830 7.640590 2.437758
Spine -8.976337 0.324274 -5.726268
Head -24.800058 -9.318904 12.785843
LeftShoulder -0.331499 12.707451 16.869749
LeftArm 59.549903 38.900155 -53.470805
LeftForeArm 34.260964 -0.000000 111.038023
LeftHand -26.338697 -0.000000 25.205286
LeftHandThumb1 -26.253704 0.000000 33.147579
RightShoulder -17.187985 10.788498 -20.429019
RightArm 2.591580 -36.521165 89.611157
RightForeArm -25.580365 -0.000000 123.045308
RightHand -1.045264 -0.000000 -25.607279
RightHandThumb1 -24.326973 -0.000000 -32.862282
LeftUpLeg -12.317753 4.002371 -6.330948
LeftLeg -1.028548 -0.000000 0.000000
LeftFoot -11.709899 14.549781 -17.389315
LeftToeBase 5.858304 -0.000000 -0.000000
RightUpLeg -19.485263 -4.979953 -6.957805
RightLeg 20.052520 -0.000000 -0.000000
RightFoot -14.551744 -11.545345 -3.031363
RightToeBase -1.006246 -0.000000 0.000000
